<?xml version="1.0" encoding="utf-8"?>
<svg id="svg2" viewBox="0 40 500 600" xmlns="http://www.w3.org/2000/svg">
  <desc>Source: openclipart.org/detail/209545</desc>
  <path fill="#ffffff" d="M 378.304 210.118 C 385.017 191.835 391.559 184.556 394.927 181.821 C 397.43 179.784 399.613 179.012 401.404 179.514 C 404.674 180.441 408.346 185.632 411.117 193.387 C 420.021 218.308 419.294 262.613 410.357 299.763 L 378.304 210.118 Z M 144.45 270.013 C 150.599 244.55 152.856 215.696 150.803 192.048 L 115.153 188.055 L 144.45 270.013 Z M 381.133 177.197 L 134.85 149.659 C 132.806 149.429 130.567 150.859 129.036 152.124 C 126.036 154.584 120.517 160.598 114.597 174.823 L 366.996 203.029 C 371.216 192.146 376.007 183.407 381.149 177.213 L 381.133 177.197 Z M 194.066 422.551 L 194.066 364.463 L 202.865 365.44 L 237.403 369.696 L 237.403 427.611 L 194.066 422.551 Z M 207.149 389.416 C 207.205 392.767 208.82 395.895 211.516 397.869 L 209.602 417.927 L 223.502 419.357 L 220.232 398.822 C 222.957 397.353 224.562 394.404 224.321 391.307 C 224.018 386.186 220.292 381.926 215.277 380.965 C 215.277 380.965 215.416 381.047 215.382 381.047 C 210.518 380.489 206.331 384.25 207.149 389.343 L 207.149 389.416 Z M 250.485 442.355 L 180.983 434.273 L 180.983 363.043 L 180.124 362.969 C 179.61 365.944 177.174 368.202 174.18 368.48 C 177.189 369.544 178.996 372.632 178.458 375.79 C 177.917 378.985 175.14 381.307 171.916 381.261 C 178.827 384.549 175.465 395.042 167.942 393.663 C 172.088 396.535 171.585 402.837 167.037 405.008 C 165.253 405.86 163.181 405.857 161.4 404.999 C 164.638 408.882 162.479 414.828 157.513 415.705 C 155.209 416.112 152.863 415.253 151.359 413.451 L 151.359 413.524 C 151.859 416.256 150.596 419.008 148.203 420.4 L 155.669 424.794 L 155.669 436.499 L 145.856 442.355 L 136.045 436.506 L 136.045 424.794 L 142.708 420.834 C 140.599 420.018 139.043 418.19 138.563 415.972 C 138.559 415.945 138.559 415.917 138.563 415.891 C 136.763 420.615 130.547 421.611 127.375 417.684 C 126.039 416.032 125.582 413.833 126.15 411.783 C 120.548 417.709 111.355 410.087 116.086 403.439 C 109.26 407.15 102.825 397.954 108.611 392.759 C 101.114 394.945 96.793 384.478 103.632 380.693 C 98.676 381.59 94.613 376.761 96.318 372.002 C 97.071 369.898 98.838 368.324 101.007 367.823 C 93.408 366.963 93.2 355.943 100.762 354.796 C 100.215 354.661 99.728 354.408 99.265 354.172 L 85.169 352.644 L 85.659 489.905 L 338.467 518.235 L 337.978 382.025 L 250.485 371.305 L 250.485 442.355 Z M 365.009 307.649 L 368.868 309.217 L 369.613 309.694 L 401.272 313.234 L 382.253 260.034 L 371.772 290.425 C 371.641 290.801 368.983 298.473 365.009 307.666 L 365.009 307.649 Z M 194.492 275.008 L 198.58 279.516 L 209.005 270.358 L 226.543 268.485 L 240.126 281.094 L 248.72 288.263 L 263.879 280.633 L 266.693 281.043 C 266.79 280.494 266.896 279.943 267.003 279.402 C 269.52 266.177 273.012 254.629 273.16 254.144 L 284.109 218.077 L 297.911 253.158 L 304.795 270.752 L 313.512 260.576 L 331.615 239.442 L 336.342 266.917 L 339.031 282.604 L 353.013 274.686 L 381.705 258.432 L 366.595 216.213 L 163.928 193.535 C 165.979 222.233 162.414 257.043 153.797 285.529 L 155.694 285.529 L 161.416 274.966 L 194.5 274.966 L 194.492 275.008 Z M 103.493 355.001 C 109.707 356.726 109.952 365.487 103.845 367.56 C 110.171 368.272 111.859 376.721 106.298 379.831 C 112.555 379.381 115.794 387.181 111.072 391.332 C 117.053 389.594 121.839 396.437 118.186 401.5 C 123.328 398.61 129.354 403.484 127.639 409.147 C 131.343 405.268 137.865 407.255 138.8 412.547 C 140.481 407.854 146.551 406.681 149.847 410.412 C 148.796 405.151 154.122 400.912 158.98 403.142 C 155.249 398.402 159.327 391.543 165.252 392.596 C 160.003 388.865 162.699 380.564 169.127 380.661 C 163.145 377.783 164.733 368.821 171.335 368.193 C 168.572 367.236 166.777 364.553 166.935 361.621 L 104.442 354.837 C 104.106 354.993 103.832 354.96 103.493 355.001 Z M 404.02 469.238 L 403.538 334.648 L 396.449 340.397 L 351.059 378.829 L 351.533 511.893 L 404.02 469.238 Z M 382.572 333.546 L 362.858 321.004 L 359.441 319.616 C 354.608 329.078 348.492 338.509 340.912 342.516 C 336.464 344.882 330.92 346.081 324.428 346.081 C 315.327 346.081 304.19 343.691 293.888 339.509 C 285.711 336.225 274.837 330.475 269.146 321.981 C 265.138 315.994 263.716 307.385 264.804 294.941 L 246.994 303.919 L 231.459 290.942 L 222.121 282.292 L 214.63 283.113 L 197.91 297.758 L 188.915 288.148 L 169.119 288.148 L 154.72 314.433 L 150.059 308.519 L 146.445 312.503 L 137.647 325.933 L 127.598 329.965 L 122.574 337.427 L 112.599 337.427 L 110.328 342.361 L 173.208 349.104 C 173.573 348.199 174.132 347.386 174.844 346.721 C 177.186 344.548 180.747 344.389 183.273 346.344 C 183.229 346.282 183.192 346.217 183.158 346.146 C 179.107 339.274 188.439 332.495 193.682 338.446 C 198.924 344.396 191.093 352.879 184.794 348.003 C 185.25 348.726 185.561 349.533 185.71 350.377 L 204.205 352.381 L 342.016 369.276 L 384.118 333.645 L 382.572 333.546 Z M 359.4 286.128 L 329.244 303.205 L 323.406 269.142 L 300.511 295.845 L 285.686 257.971 C 285.686 257.971 272.073 302.802 279.963 314.646 C 286.251 324.051 308.925 332.923 324.386 332.923 C 328.475 332.923 332.097 332.298 334.747 330.886 C 346.03 324.881 359.4 286.128 359.4 286.128 Z" style="stroke-width: 1;"/>
</svg>